<?xml version="1.0" encoding="UTF-8"?>
<svg id="Capa_2" data-name="Capa 2" xmlns="http://www.w3.org/2000/svg" viewBox="0 0 223.53 556.16">
  <defs>
    <style>
      .cls-1 {
        fill: #717171;
        fill-rule: evenodd;
      }
    </style>
  </defs>
  <g id="Layer_1" data-name="Layer 1">
    <path class="cls-1" d="m223.53,87.63c-13.86-1.17-27.73,2.34-34.66-10.52-9.7-21.03,11.09-19.86-4.16-33.88-18.02-16.36-37.43-12.85-42.98-25.7-2.77-7.01-2.77-12.85-5.54-17.53-12.48,5.84-13.86,12.85-30.5,2.34-8.32-3.5-9.7-2.34-15.25,2.34-11.09,8.18-22.18,21.03-26.34,37.39-2.77,11.68-2.77,26.87-6.93,37.39-8.32,17.53-8.32,7.01-12.48,33.88-1.39,16.36-6.93,15.19-5.55,37.39,1.39,12.85,5.55,26.87,4.16,39.73-2.77,19.86-15.25,49.07-19.41,71.27-8.32,58.42,1.39,86.46-2.77,132.03-1.39,14.02-8.32,19.86-11.09,33.88-1.39,5.84-1.39,11.68-4.16,17.53-4.16,11.68-8.32,26.87-4.16,39.73,6.93,26.87,23.57,11.68,37.43,25.7-4.16,37.39-1.39,16.36-12.48,29.21,1.39,8.18,5.54,8.18,11.09,10.52,4.16,2.34,8.32,5.84,13.86,5.84s9.7-3.51,16.64-3.51h19.41c-5.55-9.35-19.41-14.02-26.34-22.2-4.16-5.84-5.55-10.51-9.7-16.36-2.77-4.67-6.93-7.01-5.54-17.53,2.77-11.68-1.39-8.18-2.77-19.86-2.77-22.2,13.86-18.69,18.02-29.21,4.16-11.68,1.39-7.01,8.32-15.19,11.09-11.68,22.18-16.36,11.09-29.21-6.93-8.18-23.57-12.85-13.86-29.21,8.32-11.68,23.57-10.52,27.73-19.86,2.77-5.84,1.39-14.02,5.55-19.86,4.16-5.84,9.7-4.67,13.86-9.35q-2.77-2.34-5.54-3.51c-1.39-1.17-2.77-1.17-5.55-2.34-15.25-7.01-4.16-29.21-2.77-30.38,15.25-2.34,12.48,9.35,30.5,4.67-2.77-28.04,5.55-38.56,34.66-35.05,12.48,2.34,16.64-1.17,23.57-8.18,22.18-24.54,12.48-18.69,9.7-36.22-2.77-12.85-13.86-7.01-15.25-21.03-1.39-9.35,1.39-9.35,5.54-12.85-11.09-51.41,29.11-78.28,34.66-92.3Z"/>
  </g>
</svg>