<?xml version="1.0" encoding="UTF-8"?>
<svg id="Capa_2" data-name="Capa 2" xmlns="http://www.w3.org/2000/svg" viewBox="0 0 139.9 182.76">
  <defs>
    <style>
      .cls-1 {
        fill: #717171;
        fill-rule: evenodd;
      }
    </style>
  </defs>
  <g id="Layer_1" data-name="Layer 1">
    <path class="cls-1" d="m.62,21.53c0,29.21-1.39,61.92,0,91.13,2.77,24.54,8.32,22.2,11.09,35.05,4.16,17.53-2.77,7.01,9.7,35.05,12.48-1.17,16.64-16.36,30.5-8.18,22.18,11.68,15.25,1.17,31.89-3.51-1.39-19.86,4.16-25.71,16.64-33.88,19.41-11.68,20.79,2.34,38.82-2.34,4.16-37.39-12.48-30.38-27.73-46.74-9.7-9.35-5.55-14.02-9.7-28.04-2.77-9.35-11.09-16.36-19.41-16.36-20.8-2.34-27.73,4.67-40.2-35.05-2.77-14.02-12.48-8.18-20.79-2.34L.62,21.53Z"/>
  </g>
</svg>