<?xml version="1.0" encoding="UTF-8"?>
<svg id="Capa_2" data-name="Capa 2" xmlns="http://www.w3.org/2000/svg" viewBox="0 0 486.37 553.82">
  <defs>
    <style>
      .cls-1 {
        fill: #717171;
        fill-rule: evenodd;
      }
    </style>
  </defs>
  <g id="Layer_1" data-name="Layer 1">
    <path class="cls-1" d="m298.85,95.81c-4.16-7.01,6.93-11.68,6.93-18.69q1.39-2.34,0-2.34c-6.93-3.51-11.09,2.34-16.64,4.67-5.55,2.34-15.25,2.34-15.25-4.67-1.39-7.01,16.64-16.36,19.41-25.71-2.77-5.84-5.55-9.35-8.32-16.36-2.77-7.01-2.77-12.85-5.54-19.86-11.09,5.84-5.55,11.68-12.48,21.03-13.86,22.2-30.5,0-41.59,12.85-8.32,9.35-11.09,7.01-18.02-1.17-12.48,1.17-33.27,7.01-36.04-8.18-2.77-16.36,8.32-31.55-9.7-37.39l-4.16,3.51c-2.77,2.34-1.39,2.34-5.55,3.5-4.16,1.17-5.55,2.34-9.7,3.51-13.86,9.35-6.93,8.18-19.41,3.51,0,10.51,8.32,15.19,4.16,25.71-6.93,14.02-41.59,33.88-49.91,5.84-29.11,0-36.04-2.34-29.11,31.55,1.39,9.35,16.63,40.89-16.64,51.41-13.86,4.67-22.18,11.68-27.73,25.71-6.93,18.69-2.77,24.54,4.16,39.73,11.09,18.69,22.18,4.67,34.66,17.53,4.16,3.51,6.93,12.85,13.86,11.68,4.16,0,12.48-7.01,15.25-10.51,9.7-7.01,24.95-16.36,31.89,2.34,5.55,15.19-1.39,2.34,6.93,19.86,2.77,7.01,4.16,11.68,13.86,11.68,8.32,1.17,13.86-1.17,22.18,3.51,5.55,2.34,11.09,7.01,13.86,11.68,9.7,17.53-2.77,23.37,16.64,36.22,11.09,8.18,22.18,12.85,23.57,30.38,1.39,17.53-5.55,33.88,2.77,45.57,4.16,4.67,9.7,9.35,13.86,14.02,5.54,5.84,5.54,9.35,9.7,16.36,11.09,15.19,19.41,2.34,20.8,31.55,1.39,37.39-20.8,40.89-36.05,68.94,6.93,10.51,18.02,12.85,26.34,22.2,4.16,3.5,5.55,9.35,11.09,14.02,1.39,1.17,4.16,4.67,5.54,5.84,2.77,3.51,1.39,4.67,4.16,7.01,4.16-5.84,2.77-7.01,4.16-16.36,1.39-7.01,8.32-25.71,11.09-28.04,5.55-3.51,8.32,1.17,12.48,3.5l20.8-33.88c1.39-3.5-1.39-16.36-1.39-24.54,1.39-7.01,4.16-15.19,6.93-19.86,8.32-15.19,15.25-16.36,31.88-21.03,12.48-3.51,8.32-4.67,15.25-12.85,4.16-4.67,12.48-3.51,19.41-4.67,33.27-3.51,33.27-33.88,45.75-61.92,5.55-14.02,12.48-24.54,12.48-43.23s-5.55-36.22,6.93-45.57c11.09-8.18,5.55-2.34,11.09-16.36,2.77-9.35,26.34-25.71,30.5-51.41,1.39-8.18-1.39-17.53-4.16-24.54-2.77-8.18-5.55-10.52-13.86-11.68-26.34,0-33.27-29.21-51.29-25.71-15.25,3.51-8.32,0-19.41-3.51-12.48-2.34-30.5,16.36-36.04-4.67-2.77-11.68-4.16-9.35-12.48-15.19-4.16-3.51-8.32-8.18-16.64-7.01-6.93,0-9.7,7.01-15.25,11.68-5.54,3.51-13.86,4.67-18.02-1.17Z"/>
  </g>
</svg>