<?xml version="1.0" encoding="UTF-8"?>
<svg id="Capa_2" data-name="Capa 2" xmlns="http://www.w3.org/2000/svg" viewBox="0 0 102.71 543.3">
  <defs>
    <style>
      .cls-1 {
        fill: #717171;
        fill-rule: evenodd;
      }
    </style>
  </defs>
  <g id="Layer_1" data-name="Layer 1">
    <path class="cls-1" d="m66.67,247.7c0-17.53-6.93-32.72-4.16-52.58,1.39-8.18,4.16-11.68,5.55-21.03,5.55-37.39,9.7-22.2,15.25-39.72,1.39-7.01,1.39-16.36,2.77-23.37,4.16-21.03,9.7-24.54,16.64-36.22-8.32-9.35-11.09-18.69-12.48-36.22-1.39-8.18-4.16-11.68-6.93-18.69-2.77-5.84-4.16-11.68-4.16-19.86-11.09,3.51-11.09,10.52-11.09,23.37,0,60.76-4.16,36.22-6.93,60.76-2.77,11.68,0,29.21,0,40.89,0,40.89-9.7,16.36-11.09,72.44-1.39,54.91-5.54,28.04-11.09,63.09-2.77,12.85-4.16,18.69-12.48,24.54-9.7,8.18-2.77,14.02-2.77,28.04,2.77,52.58-4.16,52.58-4.16,70.1,4.16-2.34,5.55-5.84,12.48-4.67,4.16,10.52-8.32,64.26-12.48,70.1-8.32,1.17-4.16-1.17-9.7-1.17-6.93,11.68-1.39,8.18,2.77,17.53,0,7.01-6.93,11.68-9.71,21.03-2.77,7.01-4.16,17.53-1.39,25.71,4.16,2.34,5.55,0,11.09,4.67,5.54,8.18-12.48,15.19,11.09,26.87,2.77-46.74,4.16-22.2,9.7-49.07,1.39-10.52,2.77-12.85,5.55-21.03,2.77-7.01,5.55-15.19,5.55-23.37l-1.39-80.62c0-57.25,23.57-100.48,23.57-121.51Z"/>
  </g>
</svg>