<?xml version="1.0" encoding="UTF-8"?>
<svg id="Capa_2" data-name="Capa 2" xmlns="http://www.w3.org/2000/svg" viewBox="0 0 228.51 192.01">
  <defs>
    <style>
      .cls-1 {
        fill: #717171;
        fill-rule: evenodd;
      }
    </style>
  </defs>
  <g id="Layer_1" data-name="Layer 1">
    <path class="cls-1" d="m19.17,1.17C10.85,1.17,9.47,0,3.92,3.51,1.15,7.01-1.62,9.35,1.15,16.36c8.32,3.51,9.7-1.17,18.02,7.01,4.16,5.84,4.16,9.35,12.48,12.85,23.57,7.01,23.57,15.19,33.27,16.36,4.16-4.67,4.16-11.68,6.93-15.19,4.16-3.51,12.48-3.51,16.64-1.17,5.55,2.34,5.55,9.35,8.32,15.19,2.77,5.84,4.16,5.84,5.55,15.19,6.93,60.76-8.32,51.41-16.64,67.77,1.39,1.17,0,0,2.77,2.34,0,0,0,1.17,1.39,1.17,0,0,1.39,1.17,2.77,2.34,6.93,4.67,12.48,9.35,22.18,10.52,13.86,3.51,19.41,2.34,29.11,12.85,6.93,7.01,13.86,23.37,19.41,26.87,8.32,3.51,29.11,0,38.82,0-2.77-11.68-9.71-30.38-8.32-44.4,1.39-19.86,19.41-12.85,34.66-16.36-1.39-7.01-6.93-19.86-6.93-26.87-1.39-10.52,4.16-24.54,1.39-30.38-5.54-2.34-11.09,0-16.64-1.17-6.93-1.17-8.32-4.67-12.48-7.01-9.7-5.84-22.18,8.18-27.73-4.67-2.77-3.51-2.77-10.52-4.16-15.19-1.39-5.84-4.16-9.35-5.55-14.02-2.77-8.18-6.93-22.2-8.32-30.38-24.95,7.01-23.57,22.2-29.11,31.55-18.02,28.04-19.41,0-29.11-4.67-5.55-2.34-18.02-3.51-23.57,0-6.93,7.01-6.93,10.52-19.41,4.67C30.26,22.2,27.49,18.69,20.56,2.34l-1.39-1.17Z"/>
  </g>
</svg>