<?xml version="1.0" encoding="UTF-8"?>
<svg id="Capa_2" data-name="Capa 2" xmlns="http://www.w3.org/2000/svg" viewBox="0 0 372.92 257.93">
  <defs>
    <style>
      .cls-1 {
        fill: #717171;
        fill-rule: evenodd;
      }
    </style>
  </defs>
  <g id="Layer_1" data-name="Layer 1">
    <path class="cls-1" d="m0,2.05c4.16,4.67,8.32,10.52,9.7,18.69,2.77,12.85,2.77,14.02,9.7,21.03,30.5,24.54,13.86,19.86,15.25,38.56,12.48,8.18,24.95,9.35,29.11,28.04,2.77,16.36,2.77,8.18,12.48,16.36,5.55,4.67,6.93,9.35,15.25,12.85-4.16-16.36-24.95-43.23-36.04-54.91-8.32-10.52-8.32-21.03-13.86-31.55-4.16-7.01-19.41-16.36-15.25-31.55,4.16-10.52,23.57-8.18,27.73,4.67,6.93,18.69,1.39,19.86,13.86,32.72,8.32,8.18,15.25,12.85,23.57,22.2,6.93,9.35,2.77,15.19,16.64,29.21,11.09,10.52,37.43,33.88,41.59,47.9,5.55,15.19-6.93,25.71,4.16,38.56,4.16,5.84,16.64,16.36,24.95,18.69,12.48,5.84,20.8,5.84,30.5,15.19,13.86,12.85,12.48,7.01,30.5,12.85,18.02,5.84,16.64,4.67,36.04,3.5,15.25-2.34,23.57,5.84,30.5,12.85,6.93-5.84,16.64-8.18,16.64-21.03,2.77-35.05,42.98,0,41.59-36.22-1.39-19.86,1.39-19.86,8.32-30.38-9.7-2.34-26.34-1.17-33.27,4.67-11.09,9.35-5.55,18.69-11.09,31.55-8.32,18.69-12.48,0-23.57,4.67-8.32,3.51-18.02,15.19-26.34,8.18-4.16-2.34-5.55-5.84-9.7-9.35-16.64-15.19-5.55-16.36-15.25-26.87-4.16-4.67-5.55-5.84-9.7-11.68-13.86-21.03-1.39-46.74-1.39-74.78-15.25,1.17-16.64-7.01-30.5-24.54-6.93-9.35-13.86-28.04-22.18-33.88-5.55,4.67-9.7,12.85-22.18,10.52-18.02-3.51-16.64-33.88-31.89-38.56-23.57-8.18-6.93,10.52-54.07,8.18C58.23,18.4,56.84-7.3,0,2.05Z"/>
  </g>
</svg>