<?xml version="1.0" encoding="UTF-8"?>
<svg id="Capa_2" data-name="Capa 2" xmlns="http://www.w3.org/2000/svg" viewBox="0 0 97.26 121.47">
  <defs>
    <style>
      .cls-1 {
        fill: #717171;
        fill-rule: evenodd;
      }
    </style>
  </defs>
  <g id="Layer_1" data-name="Layer 1">
    <path class="cls-1" d="m48.74,3.33c-12.48,1.17-19.41-5.84-29.11-2.34C14.08,2.16,4.37,11.51,1.6,16.18c-2.77,7.01-1.39,23.37,0,31.55,2.77,12.85,8.32,10.52,18.02,15.19,51.29,22.2,27.73,32.72,30.5,45.57,2.77,15.19,18.02,12.85,36.04,12.85,8.32-10.51,11.09-16.36,11.09-35.05-1.39-22.2-9.7-11.68-18.02-25.71-2.77-3.5-5.54-9.35-8.32-14.02-9.7-12.85-23.57-12.85-22.18-43.23Z"/>
  </g>
</svg>