<?xml version="1.0" encoding="UTF-8"?>
<svg id="Capa_2" data-name="Capa 2" xmlns="http://www.w3.org/2000/svg" viewBox="0 0 147.38 252.37">
  <defs>
    <style>
      .cls-1 {
        fill: #717171;
        fill-rule: evenodd;
      }
    </style>
  </defs>
  <g id="Layer_1" data-name="Layer 1">
    <path class="cls-1" d="m134.47,251.21v-1.17c12.48-17.53,13.86,4.67,12.48-26.87-1.39-16.36,1.39-58.42,0-67.77,0-4.67-5.54-8.18-8.32-11.68-13.86-17.53-12.48-4.67-29.11-12.85-6.93-2.34-13.86-17.53-16.64-26.87-5.55-11.68,0-25.7,4.16-35.05,12.48-23.37,30.5-22.2,37.43-26.87,5.55-3.51,5.55-7.01,8.32-11.68-11.09-3.51-30.5,2.34-40.2-3.51-5.54-3.51-15.25-19.86-19.41-26.87-9.7,2.34-11.09,12.85-16.64,19.86-6.93,7.01-12.48,9.35-20.8,15.19-12.48,9.35-11.09,14.02-18.02,18.69-2.77,2.34-23.57,7.01-27.73,7.01,0,19.86,5.54,16.36,15.25,25.7,5.54,5.84,11.09,16.36,13.86,26.87,11.09,38.56,15.25,28.04,26.34,56.08,4.16,7.01,6.93,25.7,11.09,30.38,5.54,5.84,18.02,9.35,26.34,12.85,15.25,5.84,36.04,24.54,40.2,39.73l1.39-1.17Z"/>
  </g>
</svg>