<?xml version="1.0" encoding="UTF-8"?>
<svg id="Capa_2" data-name="Capa 2" xmlns="http://www.w3.org/2000/svg" viewBox="0 0 164.97 158.87">
  <defs>
    <style>
      .cls-1 {
        fill: #717171;
        fill-rule: evenodd;
      }
    </style>
  </defs>
  <g id="Layer_1" data-name="Layer 1">
    <path class="cls-1" d="m22.18,46.74c-13.86-21.03-1.39-35.05,0-46.74C16.64,0,4.16,7.01,0,10.52c4.16,9.35,5.54,22.2,8.32,31.55,2.77,5.84,4.16,8.18,6.93,14.02,2.77,11.68,0,16.36,8.32,16.36,2.77,1.17,5.55-1.17,8.32-1.17,5.54-1.17,8.32-1.17,12.48,1.17,15.25,9.35,5.55,4.67,22.18,5.84,12.48,1.17,12.48,10.52,9.7,22.2-2.77,12.85-1.39,16.36,1.39,28.04,4.16,15.19,5.54,40.89,31.89,25.7,26.34-14.02,8.32-24.54,9.7-35.05q0-3.51,1.39-4.67c9.7-7.01,6.93,7.01,18.02-1.17,6.93-5.84,9.7-4.67,18.02-9.35,0-10.52-1.39-14.02,2.77-23.37,4.16-8.18,5.54-11.68,5.54-21.03-11.09-9.35-4.16-9.35-9.7-19.86-5.55-3.51-6.93-1.17-13.86-5.84-2.77-2.34-5.55-5.84-9.7-9.35-11.09,0-13.86,8.18-31.89,5.84-5.54-1.17-9.7-4.67-15.25-2.34-6.93,1.17-4.16,4.67-13.86,3.51-8.32-11.68,1.39-17.53-23.57-22.2-2.77,2.34-5.55,5.84-8.32,9.35-2.77,4.67-2.77,5.84-1.39,11.68,2.77,12.85-4.16,17.53-15.25,16.36Z"/>
  </g>
</svg>