<svg width="628" height="133" viewBox="0 0 628 133" fill="none" xmlns="http://www.w3.org/2000/svg">
<g clip-path="url(#clip0_7_20)">
<mask id="mask0_7_20" style="mask-type:alpha" maskUnits="userSpaceOnUse" x="19" y="19" width="428" height="85">
<path fill-rule="evenodd" clip-rule="evenodd" d="M149.579 20.4042C130.903 27.0692 124.255 53.2482 137.8 66.7922C141.266 70.2582 143.541 70.5102 143.012 67.3692C139.574 46.9712 147.979 34.4642 167.143 31.4602C172.009 30.6982 171.694 29.5222 165.048 23.6472C159.258 18.5292 156.47 17.9452 149.579 20.4042ZM56.2481 27.3342C54.0791 32.9852 56.0941 35.4772 62.8311 35.4772C69.3311 35.4772 69.3311 35.4772 69.3311 30.9772C69.3311 26.4772 69.3311 26.4772 63.0681 26.1792C58.3111 25.9532 56.6711 26.2302 56.2481 27.3342ZM19.2851 30.2352C19.0201 30.9272 18.9221 46.1152 19.0671 63.9852C19.3311 96.4772 19.3311 96.4772 30.3311 96.4502C47.7121 96.4082 50.8781 93.5602 51.6361 77.2842C52.0111 69.2462 51.7801 67.5032 49.8021 63.4162C47.5861 58.8402 47.5771 58.6782 49.3521 55.6732C53.7351 48.2522 51.1291 33.8762 44.8301 30.7292C40.4481 28.5392 20.0871 28.1462 19.2851 30.2352ZM202.939 30.3462C202.13 31.3222 201.879 41.0352 202.067 64.0962C202.331 96.4772 202.331 96.4772 208.165 96.7792C216.733 97.2232 216.831 97.0472 216.831 81.2812C216.831 69.0102 216.984 67.8602 218.581 68.1652C220.119 68.4602 220.392 70.1952 220.831 82.4892C221.331 96.4772 221.331 96.4772 227.831 96.4772C234.331 96.4772 234.331 96.4772 234.615 82.4772C234.848 70.9732 234.594 67.7982 233.186 64.6662C231.544 61.0152 231.553 60.7212 233.402 57.6662C238.193 49.7472 235.103 33.2422 228.297 30.3982C223.652 28.4572 204.54 28.4182 202.939 30.3462ZM392.54 29.6012C392.15 29.9912 391.831 32.4702 391.831 35.1082C391.831 38.8832 391.404 40.1352 389.831 40.9772C388.293 41.8002 387.831 43.0712 387.831 46.4772C387.831 49.8832 388.293 51.1542 389.831 51.9772C391.726 52.9912 391.831 54.0712 391.831 72.5582C391.831 91.9392 391.847 92.0842 394.286 94.5222C397.026 97.2632 406.331 98.0772 408.631 95.7772C410.662 93.7462 410.128 87.2062 407.831 85.9772C405.959 84.9752 405.831 83.8832 405.831 68.9772C405.831 54.0712 405.959 52.9792 407.831 51.9772C410.663 50.4612 410.701 42.5132 407.883 41.0052C406.406 40.2142 405.862 38.6962 405.633 34.7202C405.331 29.4772 405.331 29.4772 399.29 29.1852C395.967 29.0242 392.93 29.2112 392.54 29.6012ZM161.331 38.3092C155.8 40.1322 152.794 41.7892 149.581 44.7862C145.502 48.5902 146.135 49.1672 153.584 48.4332C169.036 46.9102 181.061 55.4892 183.932 70.0842C185.384 77.4662 186.476 77.5052 192.276 70.3852C197.605 63.8442 197.978 60.9772 194.478 53.4772C188.805 41.3202 173.477 34.3062 161.331 38.3092ZM86.9541 38.9582C76.1111 41.5872 74.3311 45.6532 74.3311 67.8002C74.3311 92.5062 76.9451 96.9772 91.3901 96.9772C105.482 96.9772 108.227 92.5192 108.632 68.9772C109.075 43.2662 103.131 35.0352 86.9541 38.9582ZM250.364 39.0962C240.587 41.4122 238.831 45.7312 238.831 67.4592C238.831 92.2422 240.887 96.1762 254.144 96.7632C266.578 97.3132 272.068 92.4132 272.241 80.6112C272.331 74.4772 272.331 74.4772 265.831 74.4772C259.336 74.4772 259.331 74.4792 259.057 77.4772C258.474 83.8482 257.863 85.1212 255.546 84.7922C253.5 84.5012 253.331 83.9422 253.331 77.4772C253.331 70.4772 253.331 70.4772 261.781 70.1832C272.645 69.8062 272.831 69.6242 272.831 59.3752C272.831 42.7012 264.997 35.6292 250.364 39.0962ZM288.516 38.9612C272.693 41.9582 271.516 57.8102 286.207 70.0702C293.534 76.1842 296.365 80.4222 295.182 83.5052C293.758 87.2172 290.165 84.2662 289.663 78.9732C289.331 75.4772 289.331 75.4772 282.831 75.4772C276.331 75.4772 276.331 75.4772 276.058 80.4772C275.503 90.6652 281.691 96.9782 292.229 96.9752C311.231 96.9712 316.931 78.3952 302.236 64.3592C294.378 56.8542 294.365 57.1332 302.581 56.7732C309.331 56.4772 309.331 56.4772 309.276 51.8492C309.159 42.0792 300.485 36.6942 288.516 38.9612ZM325.91 39.0662C315.841 41.0362 313.844 45.9842 313.838 68.9772C313.833 91.9392 316.186 96.0822 329.613 96.7492C342.368 97.3832 348.105 91.7352 347.619 79.0222C347.331 71.4772 347.331 71.4772 340.831 71.4772C334.331 71.4772 334.331 71.4772 334.067 75.9772C333.572 84.4272 330.425 88.5742 328.438 83.3952C327.185 80.1302 327.77 52.2732 329.115 51.1572C331.24 49.3932 332.913 51.3892 333.654 56.5742C334.356 61.4772 334.356 61.4772 340.843 61.4772C347.331 61.4772 347.331 61.4772 347.6 54.9772C348.109 42.7132 339.51 36.4062 325.91 39.0662ZM362.364 39.0702C355.6 40.7172 351.035 47.2922 351.984 54.0212C352.549 58.0232 363.701 57.7362 365.65 53.6692C367.362 50.0962 370.211 50.4522 370.653 54.2962C371.089 58.0872 369.802 59.3552 363.003 61.8342C354.05 65.0982 350.825 70.0132 350.837 80.3762C350.851 93.5472 358.208 100.592 367.022 95.8752C368.537 95.0642 369.655 95.0802 371.251 95.9342C372.445 96.5732 375.876 96.9572 378.876 96.7862C384.331 96.4772 384.331 96.4772 384.587 72.4772C384.826 50.1312 384.708 48.2562 382.881 45.2762C379.465 39.7002 370.682 37.0442 362.364 39.0702ZM425.106 38.9372C414.579 41.4742 413.331 44.4952 413.331 67.4332C413.331 92.8232 415.575 96.9672 429.331 96.9722C440.931 96.9762 446.331 91.9522 446.331 81.1542C446.331 74.4772 446.331 74.4772 439.831 74.4772C433.331 74.4772 433.331 74.4772 432.831 79.4682C431.85 89.2592 426.38 85.0792 427.034 75.0382C427.331 70.4772 427.331 70.4772 435.781 70.1832C446.753 69.8022 446.831 69.7202 446.829 58.6052C446.827 42.6512 439.021 35.5842 425.106 38.9372ZM56.3021 40.1932C56.0251 40.9152 55.9181 53.8742 56.0641 68.9912C56.3311 96.4772 56.3311 96.4772 62.8311 96.4772C69.3311 96.4772 69.3311 96.4772 69.3311 67.9772C69.3311 39.4772 69.3311 39.4772 63.0681 39.1792C58.5991 38.9662 56.6611 39.2572 56.3021 40.1932ZM36.3311 47.0602C36.3311 51.2082 35.9801 52.4772 34.8311 52.4772C33.2561 52.4772 32.1431 45.2132 33.2681 42.2792C34.5371 38.9742 36.3311 41.7762 36.3311 47.0602ZM221.42 45.4772C222.365 49.2422 221.088 53.1722 219.045 52.7852C217.285 52.4522 216.149 47.1962 217.229 44.3822C218.108 42.0922 220.744 42.7812 221.42 45.4772ZM119.408 52.3352C101.935 72.7872 138.5 98.2722 159.711 80.4242C164.942 76.0232 163.961 75.1282 154.549 75.7152C140.081 76.6182 127.016 66.3682 126.839 53.9772C126.722 45.7742 125.285 45.4562 119.408 52.3352ZM257.905 52.6712C259.695 57.3802 258.73 61.4772 255.831 61.4772C253.598 61.4772 253.298 61.0162 253.02 57.1532C252.548 50.5972 255.935 47.4902 257.905 52.6712ZM431.77 51.4032C434.086 54.1942 432.684 61.4772 429.831 61.4772C427.669 61.4772 427.289 60.9752 427.023 57.7692C426.529 51.8142 429.17 48.2712 431.77 51.4032ZM93.3311 67.9912C93.3311 83.8102 93.2501 84.4772 91.3311 84.4772C89.4291 84.4772 89.3171 83.7182 89.0541 69.0192C88.7521 52.1672 88.9641 50.6632 91.5781 51.1672C93.1641 51.4722 93.3311 53.0742 93.3311 67.9912ZM294.651 53.8052C294.854 55.1902 294.44 55.9772 293.508 55.9772C291.86 55.9772 290.512 53.3022 291.419 51.8342C292.38 50.2792 294.304 51.4532 294.651 53.8052ZM168.523 63.3972C169.622 78.9752 159.509 90.8942 145.14 90.9552C137.925 90.9862 137.878 92.1112 144.848 97.9122C151.898 103.779 154.321 104.612 159.528 102.961C179.372 96.6682 187.148 73.2952 174.175 58.9362C168.656 52.8272 167.823 53.4852 168.523 63.3972ZM37.8161 74.3492C37.7991 81.1732 36.8221 83.5712 34.4321 82.6542C32.3761 81.8652 32.0591 67.4212 34.0811 66.6952C36.6361 65.7772 37.8311 68.2262 37.8161 74.3492ZM370.622 75.6512C370.84 80.9282 370.542 82.9722 369.415 83.9072C366.913 85.9832 365.831 84.1552 365.831 77.8522C365.831 66.2042 370.148 64.2202 370.622 75.6512Z" fill="black"/>
</mask>
<g mask="url(#mask0_7_20)">
<rect x="111" y="14" width="88" height="94" fill="#51BC4E"/>
<path d="M163 80.5C163.833 77.6667 165.7 68.9 166.5 56.5V51L182 63.5V75V89L172 106H142.5L136 89H146.5L163 80.5Z" fill="#EA1D24"/>
</g>
<path d="M24.6371 99V22.6364H55.2124C60.8303 22.6364 65.516 23.4691 69.2695 25.1346C73.0231 26.8001 75.8445 29.1119 77.7337 32.07C79.6229 35.0032 80.5675 38.3839 80.5675 42.212C80.5675 45.195 79.9709 47.8175 78.7777 50.0795C77.5845 52.3168 75.9439 54.1562 73.8558 55.598C71.7926 57.0149 69.4311 58.0217 66.7713 58.6183V59.364C69.6797 59.4883 72.4016 60.3086 74.9371 61.8249C77.4975 63.3413 79.5732 65.4666 81.1641 68.201C82.755 70.9105 83.5504 74.142 83.5504 77.8956C83.5504 81.9474 82.5437 85.5643 80.5302 88.7461C78.5415 91.9031 75.5959 94.4013 71.6932 96.2408C67.7905 98.0803 62.9805 99 57.2631 99H24.6371ZM40.7823 85.8004H53.9446C58.4439 85.8004 61.7251 84.9428 63.7884 83.2276C65.8516 81.4876 66.8832 79.1758 66.8832 76.2923C66.8832 74.1793 66.3736 72.315 65.3544 70.6992C64.3352 69.0835 62.881 67.8157 60.9918 66.896C59.1275 65.9762 56.9027 65.5163 54.3175 65.5163H40.7823V85.8004ZM40.7823 54.5913H52.7514C54.9638 54.5913 56.9276 54.206 58.6428 53.4354C60.3828 52.6399 61.75 51.5213 62.7443 50.0795C63.7635 48.6378 64.2731 46.9102 64.2731 44.8967C64.2731 42.1374 63.2912 39.9126 61.3274 38.2223C59.3885 36.532 56.6293 35.6868 53.0497 35.6868H40.7823V54.5913ZM93.7577 99V41.7273H109.642V99H93.7577ZM101.737 34.3445C99.3756 34.3445 97.3497 33.5614 95.6594 31.9954C93.9939 30.4045 93.1611 28.5028 93.1611 26.2905C93.1611 24.103 93.9939 22.2262 95.6594 20.6602C97.3497 19.0692 99.3756 18.2738 101.737 18.2738C104.099 18.2738 106.112 19.0692 107.778 20.6602C109.468 22.2262 110.313 24.103 110.313 26.2905C110.313 28.5028 109.468 30.4045 107.778 31.9954C106.112 33.5614 104.099 34.3445 101.737 34.3445Z" fill="#50BC4E"/>
<path d="M202.92 99V22.6364H233.048C238.815 22.6364 243.736 23.668 247.813 25.7312C251.915 27.7695 255.034 30.6655 257.172 34.419C259.335 38.1477 260.416 42.5352 260.416 47.5813C260.416 52.6523 259.322 57.0149 257.135 60.669C254.947 64.2983 251.778 67.0824 247.627 69.0213C243.5 70.9602 238.504 71.9297 232.637 71.9297H212.465V58.9538H230.027C233.11 58.9538 235.67 58.5312 237.708 57.6861C239.747 56.8409 241.263 55.5732 242.257 53.8828C243.277 52.1925 243.786 50.092 243.786 47.5813C243.786 45.0458 243.277 42.908 242.257 41.168C241.263 39.4279 239.734 38.1104 237.671 37.2156C235.633 36.2958 233.06 35.8359 229.953 35.8359H219.065V99H202.92ZM244.159 64.2486L263.138 99H245.315L226.746 64.2486H244.159ZM296.706 100.119C290.814 100.119 285.743 98.9254 281.493 96.5391C277.267 94.1278 274.01 90.7223 271.723 86.3224C269.436 81.8977 268.293 76.6651 268.293 70.6246C268.293 64.7333 269.436 59.5629 271.723 55.1133C274.01 50.6637 277.229 47.196 281.381 44.7102C285.557 42.2244 290.454 40.9815 296.072 40.9815C299.85 40.9815 303.368 41.5906 306.624 42.8086C309.905 44.0018 312.764 45.804 315.2 48.2152C317.661 50.6264 319.575 53.6591 320.942 57.3132C322.309 60.9425 322.993 65.1932 322.993 70.0653V74.4279H274.632V64.5842H308.041C308.041 62.2972 307.544 60.2713 306.549 58.5064C305.555 56.7415 304.175 55.3619 302.411 54.3675C300.67 53.3484 298.645 52.8388 296.333 52.8388C293.922 52.8388 291.784 53.3981 289.919 54.5167C288.08 55.6104 286.638 57.0895 285.594 58.9538C284.55 60.7933 284.016 62.8441 283.991 65.1062V74.4652C283.991 77.299 284.513 79.7475 285.557 81.8107C286.626 83.8739 288.13 85.4648 290.069 86.5835C292.007 87.7021 294.307 88.2614 296.967 88.2614C298.732 88.2614 300.347 88.0128 301.814 87.5156C303.281 87.0185 304.536 86.2727 305.58 85.2784C306.624 84.2841 307.419 83.0661 307.966 81.6243L322.657 82.5938C321.912 86.1236 320.383 89.206 318.071 91.8409C315.784 94.451 312.826 96.4893 309.197 97.956C305.592 99.3977 301.429 100.119 296.706 100.119ZM381.011 58.0589L366.47 58.9538C366.221 57.7109 365.686 56.5923 364.866 55.598C364.046 54.5788 362.965 53.771 361.622 53.1744C360.305 52.5529 358.726 52.2422 356.887 52.2422C354.426 52.2422 352.35 52.7642 350.66 53.8082C348.97 54.8274 348.124 56.1946 348.124 57.9098C348.124 59.277 348.671 60.4329 349.765 61.3775C350.859 62.3221 352.735 63.0803 355.395 63.652L365.761 65.7401C371.329 66.8835 375.481 68.723 378.215 71.2585C380.949 73.794 382.316 77.125 382.316 81.2514C382.316 85.005 381.21 88.2987 378.998 91.1325C376.81 93.9663 373.803 96.1786 369.974 97.7695C366.171 99.3356 361.784 100.119 356.812 100.119C349.231 100.119 343.19 98.5401 338.691 95.3832C334.216 92.2013 331.594 87.8761 330.823 82.4073L346.446 81.587C346.919 83.8988 348.062 85.6637 349.877 86.8817C351.691 88.0749 354.016 88.6715 356.849 88.6715C359.634 88.6715 361.871 88.1371 363.561 87.0682C365.276 85.9744 366.146 84.57 366.171 82.8548C366.146 81.413 365.537 80.2322 364.344 79.3125C363.151 78.3679 361.311 77.647 358.826 77.1499L348.907 75.1736C343.314 74.055 339.151 72.1161 336.416 69.3569C333.707 66.5977 332.352 63.0803 332.352 58.8047C332.352 55.1257 333.346 51.9563 335.335 49.2965C337.348 46.6367 340.17 44.5859 343.799 43.1442C347.453 41.7024 351.729 40.9815 356.626 40.9815C363.859 40.9815 369.552 42.5103 373.703 45.5678C377.879 48.6254 380.315 52.7891 381.011 58.0589ZM418.196 100.119C412.329 100.119 407.283 98.8757 403.057 96.3899C398.856 93.8793 395.625 90.3991 393.363 85.9496C391.125 81.5 390.007 76.3793 390.007 70.5874C390.007 64.7209 391.138 59.5753 393.4 55.1506C395.687 50.701 398.931 47.2333 403.132 44.7475C407.333 42.2369 412.329 40.9815 418.121 40.9815C423.118 40.9815 427.493 41.8888 431.246 43.7035C435 45.5181 437.97 48.066 440.158 51.3473C442.345 54.6285 443.551 58.4815 443.775 62.9062H428.785C428.363 60.0476 427.244 57.7482 425.429 56.0082C423.64 54.2433 421.291 53.3608 418.382 53.3608C415.921 53.3608 413.771 54.032 411.932 55.3743C410.117 56.6918 408.7 58.6183 407.681 61.1538C406.662 63.6893 406.152 66.7592 406.152 70.3636C406.152 74.0178 406.649 77.125 407.644 79.6854C408.663 82.2457 410.092 84.1971 411.932 85.5394C413.771 86.8817 415.921 87.5529 418.382 87.5529C420.197 87.5529 421.825 87.18 423.267 86.4343C424.733 85.6886 425.939 84.6072 426.884 83.1903C427.853 81.7486 428.487 80.021 428.785 78.0075H443.775C443.526 82.3825 442.333 86.2354 440.195 89.5664C438.082 92.8725 435.161 95.4577 431.433 97.3221C427.704 99.1864 423.292 100.119 418.196 100.119ZM470.276 100.081C466.622 100.081 463.366 99.4474 460.507 98.1797C457.648 96.8871 455.386 94.9854 453.721 92.4748C452.08 89.9393 451.26 86.7823 451.26 83.0039C451.26 79.8221 451.844 77.1499 453.012 74.9872C454.181 72.8246 455.772 71.0845 457.785 69.767C459.799 68.4496 462.086 67.4553 464.646 66.7841C467.231 66.1129 469.941 65.6406 472.775 65.3672C476.106 65.0192 478.79 64.696 480.829 64.3977C482.867 64.0746 484.346 63.6023 485.266 62.9808C486.185 62.3594 486.645 61.4396 486.645 60.2216V59.9979C486.645 57.6364 485.9 55.8093 484.408 54.5167C482.941 53.2241 480.853 52.5778 478.144 52.5778C475.285 52.5778 473.011 53.2116 471.32 54.4794C469.63 55.7223 468.511 57.2884 467.965 59.1776L453.273 57.9844C454.019 54.5043 455.486 51.4964 457.673 48.9609C459.861 46.4006 462.682 44.4368 466.137 43.0696C469.618 41.6776 473.645 40.9815 478.218 40.9815C481.4 40.9815 484.445 41.3544 487.354 42.1001C490.287 42.8459 492.885 44.0018 495.147 45.5678C497.434 47.1339 499.236 49.1474 500.553 51.6083C501.871 54.0444 502.53 56.9652 502.53 60.3707V99H487.466V91.0579H487.018C486.098 92.8477 484.868 94.4261 483.327 95.7933C481.786 97.1357 479.934 98.1921 477.771 98.9627C475.608 99.7085 473.11 100.081 470.276 100.081ZM474.825 89.119C477.162 89.119 479.225 88.6591 481.015 87.7393C482.805 86.7947 484.209 85.527 485.228 83.9361C486.248 82.3452 486.757 80.543 486.757 78.5295V72.4517C486.26 72.7749 485.576 73.0732 484.706 73.3466C483.861 73.5952 482.904 73.8313 481.835 74.055C480.766 74.2539 479.697 74.4403 478.629 74.6143C477.56 74.7635 476.59 74.9002 475.72 75.0245C473.856 75.2979 472.228 75.733 470.836 76.3295C469.444 76.9261 468.362 77.734 467.592 78.7532C466.821 79.7475 466.436 80.9904 466.436 82.4819C466.436 84.6445 467.219 86.2976 468.785 87.4411C470.376 88.5597 472.389 89.119 474.825 89.119ZM545.316 41.7273V53.6591H510.826V41.7273H545.316ZM518.656 28.0057H534.54V81.4006C534.54 82.8672 534.764 84.0107 535.212 84.831C535.659 85.6264 536.28 86.1857 537.076 86.5089C537.896 86.832 538.841 86.9936 539.91 86.9936C540.655 86.9936 541.401 86.9315 542.147 86.8072C542.893 86.658 543.464 86.5462 543.862 86.4716L546.36 98.2915C545.565 98.5401 544.446 98.826 543.004 99.1491C541.563 99.4972 539.81 99.7085 537.747 99.783C533.919 99.9322 530.563 99.4226 527.68 98.2543C524.821 97.0859 522.596 95.2713 521.005 92.8104C519.414 90.3494 518.631 87.2422 518.656 83.4886V28.0057ZM581.149 100.119C575.258 100.119 570.187 98.9254 565.936 96.5391C561.71 94.1278 558.454 90.7223 556.167 86.3224C553.88 81.8977 552.736 76.6651 552.736 70.6246C552.736 64.7333 553.88 59.5629 556.167 55.1133C558.454 50.6637 561.673 47.196 565.824 44.7102C570 42.2244 574.897 40.9815 580.515 40.9815C584.294 40.9815 587.811 41.5906 591.067 42.8086C594.349 44.0018 597.207 45.804 599.643 48.2152C602.104 50.6264 604.018 53.6591 605.385 57.3132C606.753 60.9425 607.436 65.1932 607.436 70.0653V74.4279H559.075V64.5842H592.484C592.484 62.2972 591.987 60.2713 590.993 58.5064C589.998 56.7415 588.619 55.3619 586.854 54.3675C585.114 53.3484 583.088 52.8388 580.776 52.8388C578.365 52.8388 576.227 53.3981 574.363 54.5167C572.523 55.6104 571.082 57.0895 570.037 58.9538C568.993 60.7933 568.459 62.8441 568.434 65.1062V74.4652C568.434 77.299 568.956 79.7475 570 81.8107C571.069 83.8739 572.573 85.4648 574.512 86.5835C576.451 87.7021 578.75 88.2614 581.41 88.2614C583.175 88.2614 584.791 88.0128 586.257 87.5156C587.724 87.0185 588.979 86.2727 590.023 85.2784C591.067 84.2841 591.863 83.0661 592.41 81.6243L607.101 82.5938C606.355 86.1236 604.826 89.206 602.514 91.8409C600.227 94.451 597.269 96.4893 593.64 97.956C590.036 99.3977 585.872 100.119 581.149 100.119Z" fill="#EDF1D6"/>
</g>
<defs>
<clipPath id="clip0_7_20">
<rect width="628" height="133" fill="white"/>
</clipPath>
</defs>
</svg>
